<svg width="22" height="20" viewBox="0 0 22 20" fill="none" xmlns="http://www.w3.org/2000/svg">
<path d="M2.2 2.22222H5.5L7.7 0H14.3L16.5 2.22222H19.8C20.3835 2.22222 20.9431 2.45635 21.3556 2.8731C21.7682 3.28984 22 3.85507 22 4.44444V17.7778C22 18.3671 21.7682 18.9324 21.3556 19.3491C20.9431 19.7659 20.3835 20 19.8 20H2.2C1.61652 20 1.05695 19.7659 0.644365 19.3491C0.231785 18.9324 0 18.3671 0 17.7778V4.44444C0 3.85507 0.231785 3.28984 0.644365 2.8731C1.05695 2.45635 1.61652 2.22222 2.2 2.22222ZM11 5.55556C9.54131 5.55556 8.14236 6.14087 7.11091 7.18274C6.07946 8.22461 5.5 9.63769 5.5 11.1111C5.5 12.5845 6.07946 13.9976 7.11091 15.0395C8.14236 16.0814 9.54131 16.6667 11 16.6667C12.4587 16.6667 13.8576 16.0814 14.8891 15.0395C15.9205 13.9976 16.5 12.5845 16.5 11.1111C16.5 9.63769 15.9205 8.22461 14.8891 7.18274C13.8576 6.14087 12.4587 5.55556 11 5.55556ZM11 7.77778C11.8752 7.77778 12.7146 8.12897 13.3335 8.75409C13.9523 9.37921 14.3 10.2271 14.3 11.1111C14.3 11.9952 13.9523 12.843 13.3335 13.4681C12.7146 14.0933 11.8752 14.4444 11 14.4444C10.1248 14.4444 9.28542 14.0933 8.66655 13.4681C8.04768 12.843 7.7 11.9952 7.7 11.1111C7.7 10.2271 8.04768 9.37921 8.66655 8.75409C9.28542 8.12897 10.1248 7.77778 11 7.77778Z" fill="#204DE9"/>
</svg>
